#N canvas 0 22 813 563 12;
#X obj 30 2 inlet;
#X obj 30 115 pack f 100;
#X obj 36 142 line~;
#X obj 86 213 *~ 0.4;
#X obj 170 213 *~ 0.3;
#X obj 275 213 *~ 0.3;
#X obj 380 213 *~ 0.3;
#X obj 465 212 *~ 0.3;
#X obj 570 212 *~ 0.3;
#X obj 520 322 *~;
#X obj 415 322 *~;
#X obj 330 323 *~;
#X obj 225 323 *~;
#X obj 120 323 *~;
#X obj 36 323 *~;
#X obj 307 111 *~ 0.5;
#X obj 307 137 +~ 0.5;
#X obj 307 85 osc~ 1;
#X obj 367 111 *~ 0.5;
#X obj 367 137 +~ 0.5;
#X obj 417 111 *~ 0.5;
#X obj 417 137 +~ 0.5;
#X obj 467 111 *~ 0.5;
#X obj 467 137 +~ 0.5;
#X obj 517 111 *~ 0.5;
#X obj 517 137 +~ 0.5;
#X obj 567 111 *~ 0.5;
#X obj 567 137 +~ 0.5;
#X obj 140 26 inlet;
#X obj 140 52 dbtorms;
#X obj 415 46 * 1.2;
#X obj 372 46 * 1.1;
#X obj 469 46 * 1.3;
#X obj 516 46 * 1.4;
#X obj 573 46 * 1.5;
#X obj 367 85 osc~ 1.1;
#X obj 417 85 osc~ 1.2;
#X obj 467 85 osc~ 1.3;
#X obj 517 85 osc~ 1.4;
#X obj 567 85 osc~ 1.5;
#X obj 140 78 t f f f f f f f;
#X obj 36 238 phasor~;
#X obj 36 280 cos~;
#X obj 120 234 phasor~;
#X obj 225 234 phasor~;
#X obj 330 234 phasor~;
#X obj 415 233 phasor~;
#X obj 520 233 phasor~;
#X obj 120 278 cos~;
#X obj 225 278 cos~;
#X obj 330 278 cos~;
#X obj 415 277 cos~;
#X obj 520 277 cos~;
#X obj 560 322 *~;
#X obj 455 322 *~;
#X obj 370 323 *~;
#X obj 265 323 *~;
#X obj 160 323 *~;
#X obj 76 323 *~;
#X obj 76 280 cos~;
#X obj 160 278 cos~;
#X obj 265 278 cos~;
#X obj 370 278 cos~;
#X obj 455 277 cos~;
#X obj 560 277 cos~;
#X obj 35 430 throw~ dacout-1;
#X obj 509 443 throw~ dacout-2;
#X obj 120 181 *~ \$1;
#X obj 225 181 *~ \$2;
#X obj 330 181 *~ \$3;
#X obj 415 180 *~ \$4;
#X obj 520 180 *~ \$5;
#X obj 629 15 inlet;
#X obj 629 41 unpack f f f f f;
#X obj 30 28 / 127;
#X obj 30 87 + 35;
#X obj 30 60 * 100;
#X connect 0 0 74 0;
#X connect 1 0 2 0;
#X connect 2 0 41 0;
#X connect 2 0 67 0;
#X connect 2 0 68 0;
#X connect 2 0 69 0;
#X connect 2 0 70 0;
#X connect 2 0 71 0;
#X connect 3 0 14 1;
#X connect 3 0 58 1;
#X connect 4 0 13 1;
#X connect 4 0 57 1;
#X connect 5 0 12 1;
#X connect 5 0 56 1;
#X connect 6 0 11 1;
#X connect 6 0 55 1;
#X connect 7 0 10 1;
#X connect 7 0 54 1;
#X connect 8 0 9 1;
#X connect 8 0 53 1;
#X connect 9 0 65 0;
#X connect 10 0 65 0;
#X connect 11 0 65 0;
#X connect 12 0 65 0;
#X connect 13 0 65 0;
#X connect 14 0 65 0;
#X connect 15 0 16 0;
#X connect 16 0 3 0;
#X connect 16 0 64 0;
#X connect 17 0 15 0;
#X connect 18 0 19 0;
#X connect 19 0 4 0;
#X connect 19 0 63 0;
#X connect 20 0 21 0;
#X connect 21 0 5 0;
#X connect 21 0 62 0;
#X connect 22 0 23 0;
#X connect 23 0 6 0;
#X connect 23 0 61 0;
#X connect 24 0 25 0;
#X connect 25 0 7 0;
#X connect 25 0 60 0;
#X connect 26 0 27 0;
#X connect 27 0 8 0;
#X connect 27 0 59 0;
#X connect 28 0 29 0;
#X connect 29 0 40 0;
#X connect 30 0 36 0;
#X connect 31 0 35 0;
#X connect 32 0 37 0;
#X connect 33 0 38 0;
#X connect 34 0 39 0;
#X connect 35 0 18 0;
#X connect 36 0 20 0;
#X connect 37 0 22 0;
#X connect 38 0 24 0;
#X connect 39 0 26 0;
#X connect 40 1 17 0;
#X connect 40 2 31 0;
#X connect 40 3 30 0;
#X connect 40 4 32 0;
#X connect 40 5 33 0;
#X connect 40 6 34 0;
#X connect 41 0 42 0;
#X connect 41 0 59 0;
#X connect 42 0 14 0;
#X connect 43 0 48 0;
#X connect 43 0 60 0;
#X connect 44 0 49 0;
#X connect 44 0 61 0;
#X connect 45 0 50 0;
#X connect 45 0 62 0;
#X connect 46 0 51 0;
#X connect 46 0 63 0;
#X connect 47 0 52 0;
#X connect 47 0 64 0;
#X connect 48 0 13 0;
#X connect 49 0 12 0;
#X connect 50 0 11 0;
#X connect 51 0 10 0;
#X connect 52 0 9 0;
#X connect 53 0 66 0;
#X connect 54 0 66 0;
#X connect 55 0 66 0;
#X connect 56 0 66 0;
#X connect 57 0 66 0;
#X connect 58 0 66 0;
#X connect 59 0 58 0;
#X connect 60 0 57 0;
#X connect 61 0 56 0;
#X connect 62 0 55 0;
#X connect 63 0 54 0;
#X connect 64 0 53 0;
#X connect 67 0 43 0;
#X connect 68 0 44 0;
#X connect 69 0 45 0;
#X connect 70 0 46 0;
#X connect 71 0 47 0;
#X connect 72 0 73 0;
#X connect 73 0 67 1;
#X connect 73 1 68 1;
#X connect 73 2 69 1;
#X connect 73 3 70 1;
#X connect 73 4 71 1;
#X connect 74 0 76 0;
#X connect 75 0 1 0;
#X connect 76 0 75 0;
