#N canvas 0 22 450 300 12;
#X obj 85 203 s c-\$1-set;
#X obj 84 28 ctlin \$1;
#X obj 84 58 < 60;
#X obj 84 93 \$2;
#X obj 208 96 _speed;
#X obj 84 119 t f f;
#X obj 84 145 pack f 10;
#X obj 84 171 line;
#X floatatom 208 122 5 0 0 0 - - -;
#X connect 1 0 2 0;
#X connect 2 0 3 0;
#X connect 3 0 5 0;
#X connect 4 0 8 0;
#X connect 5 0 6 0;
#X connect 5 1 4 0;
#X connect 6 0 7 0;
#X connect 7 0 0 0;
