#N canvas 0 22 450 300 12;
#X obj 112 54 sel 0 1;
#X obj 112 106 counter;
#X msg 112 80 i -1 \, bang;
#X msg 213 80 i 1 \, bang;
#X obj 178 165 moses 127;
#X obj 112 132 moses;
#X msg 282 193 127;
#X msg 67 210 0;
#X obj 89 171 t b b;
#X obj 144 216 f;
#X obj 252 155 t b b;
#X obj 112 19 inlet;
#X obj 144 242 outlet;
#X connect 0 0 2 0;
#X connect 0 1 3 0;
#X connect 1 0 5 0;
#X connect 2 0 1 0;
#X connect 3 0 1 0;
#X connect 4 0 9 0;
#X connect 4 1 10 0;
#X connect 5 0 8 0;
#X connect 5 1 4 0;
#X connect 6 0 1 0;
#X connect 7 0 1 0;
#X connect 8 0 7 0;
#X connect 8 1 9 0;
#X connect 9 0 12 0;
#X connect 10 0 6 0;
#X connect 10 1 9 0;
#X connect 11 0 0 0;
